<?xml version="1.0" standalone="no"?>
<!DOCTYPE svg PUBLIC "-//W3C//DTD SVG 20010904//EN"
 "http://www.w3.org/TR/2001/REC-SVG-20010904/DTD/svg10.dtd">
<svg version="1.0" xmlns="http://www.w3.org/2000/svg"
 width="1160.000000pt" height="1160.000000pt" viewBox="0 0 1160.000000 1160.000000"
 preserveAspectRatio="xMidYMid meet">
<metadata>
Created by potrace 1.11, written by Peter Selinger 2001-2013
</metadata>
<g transform="translate(0.000000,1160.000000) scale(0.100000,-0.100000)"
fill="#000000" stroke="none">
<path d="M1112 6258 l3 -3453 988 0 987 0 0 -417 0 -418 4100 0 4100 0 0 3450
0 3450 -990 0 -990 0 0 420 0 420 -4100 0 -4100 0 2 -3452z m8158 3007 l0
-395 -3090 0 -3090 0 0 -3010 0 -3010 -970 0 -970 0 0 3405 0 3405 4060 0
4060 0 0 -395z m1980 -3845 l0 -3410 -4060 0 -4060 0 0 3410 0 3410 4060 0
4060 0 0 -3410z"/>
<path d="M5165 6623 c-36 -9 -65 -44 -65 -80 0 -78 34 -93 204 -93 l121 0 -2
-542 c-2 -299 -6 -742 -9 -985 l-6 -443 -122 0 c-95 0 -128 -4 -156 -18 -61
-30 -66 -103 -10 -143 23 -17 70 -19 700 -25 747 -7 755 -6 888 56 342 160
484 514 331 828 -58 119 -210 253 -354 313 -30 12 -55 26 -55 30 0 4 22 21 50
39 75 48 168 153 206 234 77 163 61 374 -40 522 -68 101 -195 205 -305 249
-121 49 -176 53 -786 58 -313 2 -579 2 -590 0z m1230 -199 c185 -44 340 -199
360 -358 14 -108 -34 -235 -120 -320 -59 -58 -127 -95 -236 -127 -69 -21 -97
-23 -436 -27 l-363 -4 0 431 0 430 368 -6 c269 -3 383 -9 427 -19z m89 -1043
c189 -45 325 -144 395 -286 46 -92 54 -207 22 -297 -55 -159 -203 -288 -362
-318 -29 -6 -250 -10 -500 -10 l-449 0 0 471 0 471 403 -5 c366 -4 410 -6 491
-26z"/>
<path d="M7403 6600 c-48 -20 -59 -101 -18 -140 21 -19 38 -23 118 -28 l93 -5
389 -1036 c213 -570 396 -1055 406 -1079 l19 -43 116 3 117 3 79 205 c43 113
96 250 117 305 22 55 105 271 186 480 199 515 338 875 395 1025 l48 125 96 3
c92 3 96 4 120 33 14 17 26 39 26 50 0 29 -26 75 -47 83 -10 4 -174 10 -365
13 -383 7 -395 5 -422 -52 -13 -26 -14 -39 -5 -64 19 -54 47 -61 240 -61 158
0 171 -1 167 -17 -3 -10 -86 -227 -186 -483 -230 -594 -558 -1441 -564 -1460
-4 -10 -9 -6 -18 15 -8 21 -667 1780 -727 1943 -4 9 35 12 177 12 l182 0 29
29 c16 16 29 39 29 51 0 37 -28 77 -61 89 -39 13 -703 14 -736 1z"/>
</g>
</svg>
